<?xml version="1.0" encoding="utf-8"?>
<!-- Generator: Adobe Illustrator 16.0.4, SVG Export Plug-In . SVG Version: 6.00 Build 0)  -->
<!DOCTYPE svg PUBLIC "-//W3C//DTD SVG 1.1//EN" "http://www.w3.org/Graphics/SVG/1.1/DTD/svg11.dtd">
<svg version="1.1" id="Facebook" xmlns="http://www.w3.org/2000/svg" xmlns:xlink="http://www.w3.org/1999/xlink" x="0px" y="0px"
	 width="612px" height="792px" viewBox="0 0 612 792" enable-background="new 0 0 612 792" xml:space="preserve">
<path fill="#939292" d="M306.52,90.318C137.804,90.318,1.034,227.088,1.034,395.8c0,168.714,136.77,305.484,305.485,305.484
	c168.71,0,305.48-136.77,305.48-305.484C612,227.088,475.233,90.318,306.52,90.318z M169.434,301.022h274.167
	c9.856,0,19.038,3.034,26.662,8.212L296.722,426.039l-25.43-17.981c-0.001-0.001-0.005-0.003-0.008-0.006l-133.792-94.601
	C145.969,305.763,157.162,301.022,169.434,301.022z M491.28,499.694c0,26.226-21.456,47.682-47.68,47.682H169.434
	c-26.225,0-47.682-21.456-47.682-47.682v-150.99c0-6.812,1.475-13.289,4.078-19.165l123.816,87.547l-88.902,81.234
	c-4.051,3.7-4.334,9.983-0.632,14.034c1.958,2.146,4.644,3.233,7.338,3.233c2.391,0,4.792-0.857,6.697-2.601l92.103-84.161
	l24.597,17.393c1.719,1.211,3.726,1.821,5.736,1.821c1.932,0,3.868-0.563,5.546-1.693l32.477-21.859l96.853,88.5
	c1.906,1.743,4.307,2.601,6.698,2.601c2.691,0,5.375-1.087,7.338-3.233c3.701-4.051,3.418-10.332-0.632-14.034l-93.297-85.251
	l132.6-89.247c4.479,7.262,7.114,15.769,7.114,24.882V499.694z"/>
</svg>
